<svg width="36" height="36" viewBox="0 0 36 36" fill="none" xmlns="http://www.w3.org/2000/svg">
<path fill-rule="evenodd" clip-rule="evenodd" d="M13.3916 4.46634C12.3256 5.43662 11.6138 6.92415 11.6138 9.02365V11.161H9.66724V9.02365C9.66724 6.45145 10.5575 4.41379 12.0813 3.0268C13.5911 1.65266 15.6308 1 17.796 1C19.9608 1 22.0006 1.65146 23.5105 3.02521C25.0347 4.41187 25.9248 6.4497 25.9248 9.02365V11.161H23.9782V9.02365C23.9782 6.922 23.2663 5.43465 22.2006 4.46502C21.1206 3.48247 19.5827 2.94654 17.796 2.94654C16.0097 2.94654 14.4717 3.48322 13.3916 4.46634ZM23.9782 11.1609V8.68884H25.9247V11.1609H23.9782ZM11.6138 8.68884V11.1609H9.66724V8.68884H11.6138Z" fill="#E2791C"/>
<path fill-rule="evenodd" clip-rule="evenodd" d="M23.9782 11.1611V8.69293H25.9248V11.1611H23.9782ZM25.9248 8.69293V8.68896H23.9782V8.69293H22.1135C19.7815 8.69293 17.8934 10.585 17.8934 12.913C17.8934 10.5811 16.0014 8.69293 13.6733 8.69293H11.6138V8.68896H9.66728V8.69293H9.2196C6.88764 8.69293 4.99951 10.585 4.99951 12.913V17.3667C4.99951 19.6987 6.89154 21.5868 9.2196 21.5868C6.88764 21.5868 4.99951 23.4789 4.99951 25.8069V30.2606C4.99951 32.5926 6.89154 34.4807 9.2196 34.4807H13.6733C16.0053 34.4807 17.8934 32.5887 17.8934 30.2606C17.8934 32.5926 19.7854 34.4807 22.1135 34.4807H26.5672C28.8991 34.4807 30.7873 32.5887 30.7873 30.2606V25.8069C30.7873 23.475 28.8953 21.5868 26.5672 21.5868C28.8991 21.5868 30.7873 19.6948 30.7873 17.3667V12.913C30.7873 10.5811 28.8953 8.69293 26.5672 8.69293H25.9248ZM9.66728 8.69293V11.1611H11.6138V8.69293H9.66728ZM17.8895 25.8108C17.8895 23.4789 15.9975 21.5907 13.6694 21.5907C16.0014 21.5907 17.8895 19.6987 17.8895 17.3706C17.8895 19.7026 19.7815 21.5907 22.1096 21.5907C19.7776 21.5907 17.8895 23.4828 17.8895 25.8108Z" fill="#E2791C"/>
</svg>
