<svg width="48" height="49" viewBox="0 0 48 49" fill="none" xmlns="http://www.w3.org/2000/svg">
<path fill-rule="evenodd" clip-rule="evenodd" d="M17.206 8.098C18.0499 7.12446 19.0935 6.34391 20.2657 5.80936C21.438 5.27481 22.7116 4.99878 24 5C26.714 5 29.146 6.2 30.794 8.098C32.0794 8.00622 33.3695 8.19217 34.5766 8.64321C35.7838 9.09426 36.8797 9.79983 37.79 10.712C38.7018 11.6221 39.4072 12.7178 39.8582 13.9245C40.3092 15.1313 40.4954 16.4209 40.404 17.706C41.3772 18.5501 42.1574 19.5937 42.6916 20.766C43.2258 21.9383 43.5015 23.2118 43.5 24.5C43.5012 25.7884 43.2252 27.062 42.6906 28.2343C42.1561 29.4066 41.3755 30.4501 40.402 31.294C40.4934 32.5791 40.3072 33.8687 39.8562 35.0755C39.4052 36.2823 38.6998 37.3779 37.788 38.288C36.8779 39.1998 35.7823 39.9052 34.5755 40.3562C33.3687 40.8072 32.0791 40.9934 30.794 40.902C29.9501 41.8755 28.9066 42.6561 27.7343 43.1906C26.562 43.7252 25.2884 44.0012 24 44C22.7116 44.0012 21.438 43.7252 20.2657 43.1906C19.0935 42.6561 18.0499 41.8755 17.206 40.902C15.9208 40.994 14.6308 40.8084 13.4236 40.3577C12.2165 39.907 11.1205 39.2018 10.21 38.29C9.29794 37.3797 8.59244 36.2837 8.1414 35.0766C7.69037 33.8694 7.50436 32.5794 7.59601 31.294C6.62283 30.4499 5.84266 29.4063 5.30846 28.234C4.77426 27.0617 4.49853 25.7883 4.50001 24.5C4.50001 21.786 5.70001 19.354 7.59801 17.706C7.50652 16.4209 7.69261 15.1312 8.14364 13.9244C8.59468 12.7177 9.3001 11.6221 10.212 10.712C11.1221 9.8001 12.2177 9.09468 13.4244 8.64364C14.6312 8.19261 15.9209 8.00652 17.206 8.098Z" fill="#E2791C"/>
<path d="M29.7562 19.7772L18.2438 31.4288" stroke="#191919" stroke-width="3" stroke-linecap="round" stroke-linejoin="round"/>
<path d="M29.8258 31.3591L18.1742 19.8468" stroke="#191919" stroke-width="3" stroke-linecap="round" stroke-linejoin="round"/>
</svg>
