<svg width="335" height="98" viewBox="0 0 335 98" fill="none" xmlns="http://www.w3.org/2000/svg">
<path d="M23.796 46.4982H39.0616V65.5347H0V1.55983L23.796 1.46924V46.4982Z" fill="#E2791C"/>
<path d="M65.1588 1.46924V65.5347H41.4473V1.46924H65.1588Z" fill="#E2791C"/>
<path d="M88.6103 0.00393669C92.7029 0.00393669 98.0765 0.917752 105.41 4.39576L118.459 10.6192L118.286 34.2326L91.7632 21.8764H91.2531V50.9806C91.2531 52.8122 92.0202 54.1829 93.3012 54.1829C94.3253 54.1829 95.0924 52.9028 95.0924 51.2524V34.8707H118.378V65.5308H95.0924V57.2001H94.751C88.7828 64.5224 85.2848 65.9877 80.1681 65.9877C78.3769 65.9877 67.5452 64.7075 67.5452 50.2441V19.1271C67.5452 2.46966 80.8508 0 88.6103 0V0.00393669Z" fill="#E2791C"/>
<path d="M144.56 1.46924V29.8408H148.399V1.46924H172.111V65.5347H148.399V35.0559H144.56V65.5347H120.848V1.46924H144.56Z" fill="#E2791C"/>
<path d="M174.068 1.46924H215.519V20.3245H205.539V65.5387H183.534V20.3245H174.068V1.46924Z" fill="#E2791C"/>
<path d="M229.587 45.2181V1.46924H253.214V46.3171C253.214 47.8729 254.065 48.7867 255.177 48.7867H255.262C256.455 48.7867 257.138 47.8729 257.138 46.3171V1.46924H280.765V45.2181C280.765 59.4965 272.066 67 255.346 67H255.005C238.289 67 229.587 59.4965 229.587 45.2181Z" fill="#E2791C"/>
<path d="M283.146 1.46924H318.027C331.333 1.46924 335 9.5242 335 17.1183C335 24.7124 331.333 28.9231 328.433 31.9442L306.601 54.6438V65.5347H283.146V1.46924ZM307.027 46.4076L310.609 23.9837C311.204 20.1394 310.437 18.2173 307.537 18.2173H306.601V46.4076H307.027Z" fill="#E2791C"/>
<path d="M67.1847 94.0569C66.0082 94.0569 65.0284 94.0569 64.0449 94.0535C63.9224 94.0535 63.7294 94.0361 63.6923 93.9668C63.3175 93.2835 62.8202 93.6199 62.3191 93.7864C61.0201 94.2095 59.6915 94.317 58.3257 94.0986C56.2065 93.7621 55.3344 92.0731 56.522 90.3876C57.0193 89.68 57.7876 89.1355 58.4667 88.48C58.296 88.0708 58.0213 87.5748 57.8877 87.0476C57.5611 85.7609 58.1401 84.5262 59.376 83.8083C60.7381 83.0141 62.2189 82.8684 63.7183 83.3401C65.6593 83.947 66.153 85.8684 64.7018 87.2176C64.0115 87.8592 63.1542 88.3448 62.3005 88.9517C62.6309 89.2985 62.9946 89.6766 63.4474 90.1517C63.6812 89.5413 63.8593 89.0696 64.0486 88.5806H66.7802C66.3088 89.6141 65.9191 90.5679 65.4329 91.48C65.2511 91.8234 65.2251 92.0211 65.5034 92.2951C66.0342 92.8257 66.5389 93.3806 67.181 94.0639L67.1847 94.0569ZM61.8255 91.8477C61.1092 91.1297 60.5711 90.5887 59.9921 90.0095C59.6952 90.2384 59.3871 90.3806 59.2387 90.6095C59.042 90.9182 58.7711 91.3933 58.8973 91.6222C59.0531 91.9032 59.5801 92.1286 59.9587 92.1459C60.5006 92.1702 61.0499 91.9829 61.8255 91.8442V91.8477ZM61.0869 87.4014C61.6325 86.954 62.1818 86.6141 62.5715 86.1598C63.0651 85.5841 62.6717 84.8661 61.8923 84.932C61.4692 84.9667 60.9533 85.2338 60.7047 85.5528C60.2556 86.1286 60.5339 86.7286 61.0906 87.4014H61.0869Z" fill="#E2791C"/>
<path d="M72.4731 94.1818C72.7441 92.6836 72.9705 91.4038 73.2117 90.124C73.6125 88.0084 74.0134 85.8928 74.4439 83.7841C74.4847 83.5829 74.7259 83.2604 74.8744 83.2604C76.5853 83.2604 78.3185 83.1737 80.0035 83.3922C82.1561 83.6731 83.2286 84.887 83.3734 86.961C83.5144 89.0176 82.9763 90.939 81.2839 92.3541C80.5231 92.9888 79.5173 93.5749 78.5375 93.7344C76.589 94.0466 74.5849 94.0466 72.4769 94.1853L72.4731 94.1818ZM75.4459 92.087C78.5078 92.5102 80.5491 90.894 80.6938 88.0708C80.8014 85.9829 79.9255 85.1506 77.695 85.0951C76.9416 85.0777 76.5853 85.2581 76.5853 85.9899C76.5853 86.3471 76.4443 86.7009 76.3775 87.0581C76.0657 88.7194 75.7577 90.3841 75.4422 92.0905L75.4459 92.087Z" fill="#E2791C"/>
<path d="M11.1652 86.7704H8.49299C8.41876 85.834 8.02535 85.1022 6.95648 84.9358C5.77627 84.7519 4.78908 85.1577 4.05794 86.0109C3.01134 87.2352 2.5808 88.6606 2.73668 90.2179C2.82575 91.1057 3.17463 91.8861 4.14329 92.226C5.11196 92.5659 5.97671 92.2849 6.74867 91.6988C6.86743 91.6086 7.03074 91.5185 7.07899 91.3971C7.75445 89.7982 9.19071 90.2525 10.5676 90.2595C10.0146 91.8202 8.94948 92.8849 7.46865 93.582C6.0472 94.2514 4.52557 94.3659 2.98535 94.019C1.24473 93.6306 0.201827 92.5416 0.0496611 90.9254C-0.210134 88.1994 0.513586 85.7473 3.07071 84.1034C4.92267 82.9103 7.00474 82.7854 9.10166 83.4652C10.5268 83.9265 11.2543 85.1681 11.1615 86.7739L11.1652 86.7704Z" fill="#E2791C"/>
<path d="M20.1239 89.3854C20.046 92.2328 17.9788 94.2028 15.0617 94.2062C12.6716 94.2062 11.4134 92.9854 11.5136 90.7623C11.6509 87.7172 14.3639 85.6952 17.5742 86.2397C19.2295 86.5206 20.1685 87.679 20.1239 89.3854ZM17.6299 89.5623C17.4221 88.8617 17.3107 88.2443 16.5573 88.0363C15.7928 87.8247 15.1693 88.1889 14.8872 88.7923C14.5458 89.5276 14.2823 90.3322 14.2303 91.123C14.2043 91.5079 14.646 92.0802 15.0431 92.2848C15.6072 92.5727 16.279 92.2952 16.5944 91.7785C17.0175 91.0814 17.2922 90.3045 17.6299 89.5623Z" fill="#E2791C"/>
<path d="M118.104 90.596H112.841C112.578 91.4735 112.782 92.1983 113.331 92.4342C113.925 92.6908 114.574 92.4272 115.179 91.7371C115.302 91.5983 115.547 91.4839 115.74 91.4769C116.412 91.4457 117.087 91.4631 117.967 91.4631C117.673 91.9382 117.488 92.3475 117.206 92.6804C116.007 94.0816 113.494 94.6261 111.735 93.8908C110.989 93.5787 110.47 93.055 110.217 92.3267C109.349 89.8399 111.097 86.8677 113.821 86.3128C114.56 86.1636 115.391 86.1602 116.129 86.3024C117.785 86.6214 118.624 88.1405 118.275 89.9613C118.238 90.1486 118.178 90.3324 118.108 90.596H118.104ZM115.743 89.1844C115.799 88.3555 115.428 87.87 114.775 87.8284C113.977 87.7763 113.249 88.4076 113.231 89.1844H115.743Z" fill="#E2791C"/>
<path d="M91.9207 90.5785C90.4065 90.5785 88.9293 90.5681 87.4522 90.5854C87.0699 90.5889 86.5169 90.36 86.4835 91.0675C86.4501 91.8479 86.8287 92.5207 87.4596 92.4721C87.9235 92.4375 88.5062 92.2363 88.7808 91.9172C89.1112 91.5357 89.4192 91.4351 89.8832 91.4525C90.4027 91.4733 90.9223 91.4594 91.4419 91.4629C91.4939 91.4629 91.5421 91.4837 91.6757 91.5114C91.4456 92.3577 90.8666 92.9508 90.1355 93.412C88.9627 94.1542 87.6563 94.3519 86.2683 94.0883C84.9545 93.8386 84.1157 93.1207 83.9116 91.886C83.5627 89.7669 84.6019 86.9334 87.6229 86.2814C89.5825 85.8582 91.1933 86.4062 91.8316 87.7623C92.2547 88.6675 92.1731 89.5935 91.917 90.5716L91.9207 90.5785ZM89.5157 89.1739C89.6271 88.4178 89.3376 87.953 88.6992 87.8421C87.9421 87.7103 87.1516 88.3068 86.9846 89.1739H89.5157Z" fill="#E2791C"/>
<path d="M50.9693 91.4629C50.4646 92.7739 49.5553 93.5993 48.2377 93.9184C47.4064 94.1196 46.4897 94.1889 45.6398 94.0883C44.0699 93.9045 43.1681 92.9646 43.105 91.4976C42.9973 89.0767 44.2109 86.8501 46.8423 86.3195C47.5845 86.1704 48.4122 86.1496 49.1508 86.2883C50.9062 86.6143 51.964 88.6952 51.2403 90.2837C51.1735 90.4328 50.8506 90.5577 50.6427 90.5612C49.3178 90.5854 47.9928 90.5646 46.6678 90.5785C46.267 90.582 45.74 90.4016 45.7326 91.0987C45.7289 91.8617 46.0703 92.4964 46.6716 92.4652C47.1392 92.4409 47.7293 92.2571 48.0114 91.945C48.3602 91.56 48.672 91.4178 49.173 91.449C49.7371 91.4802 50.305 91.4559 50.973 91.4559L50.9693 91.4629ZM46.2262 89.1565H48.7944C48.8278 88.3449 48.5124 87.9045 47.8852 87.8317C47.1429 87.745 46.4155 88.3137 46.2262 89.1565Z" fill="#E2791C"/>
<path d="M41.8544 91.4629C41.3831 93.0028 39.8243 94.0537 37.9241 94.1924C35.174 94.3935 33.7377 92.9508 34.1199 90.3739C34.543 87.5369 36.5694 86.0004 39.6053 86.2155C41.0639 86.3195 42.1402 87.2559 42.2663 88.6085C42.3257 89.2432 42.2775 89.8848 42.2775 90.5785C40.5888 90.5785 39.1117 90.5681 37.6309 90.5854C37.2449 90.5889 36.6956 90.3704 36.6696 91.0779C36.6437 91.8271 36.9814 92.4062 37.5826 92.4929C38.2061 92.5831 38.6663 92.3404 39.0746 91.8964C39.2713 91.6814 39.6239 91.5114 39.9282 91.4802C40.5443 91.4178 41.1715 91.4629 41.8544 91.4629ZM39.7204 89.1843C39.7946 88.3554 39.4457 87.8767 38.7814 87.8282C38.002 87.7727 37.282 88.3796 37.2041 89.1843H39.7241H39.7204Z" fill="#E2791C"/>
<path d="M101.348 91.4627C101.934 91.4627 102.48 91.4732 103.022 91.4627C103.471 91.4523 103.793 91.4627 104.016 91.983C104.309 92.6662 105.831 92.6211 106.224 91.9726C106.488 91.5321 106.232 91.2616 105.79 91.1679C105.107 91.0257 104.402 90.9807 103.723 90.8315C101.901 90.4361 101.333 88.9275 102.465 87.5298C103.6 86.1286 106.803 85.6881 108.306 86.7321C108.975 87.1934 109.249 87.8038 109.052 88.6292H106.673C106.317 87.939 105.683 87.6858 105.018 88.0327C104.825 88.1332 104.632 88.376 104.606 88.5702C104.591 88.6916 104.866 88.9344 105.052 88.976C105.753 89.139 106.48 89.2084 107.178 89.3818C109.082 89.857 109.605 91.5425 108.255 92.9229C107.078 94.1298 105.519 94.3414 103.89 94.1437C103.266 94.0674 102.621 93.8524 102.083 93.5471C101.299 93.1067 101.092 92.3784 101.344 91.4662L101.348 91.4627Z" fill="#E2791C"/>
<path d="M92.6964 91.4871C92.8671 91.4767 92.997 91.4628 93.1269 91.4628C93.7764 91.4628 94.4259 91.4628 95.0642 91.4628C95.6246 92.4582 96.3854 92.7461 97.2316 92.2571C97.4432 92.1357 97.6881 91.8478 97.6733 91.6501C97.6622 91.4698 97.3467 91.2131 97.1203 91.1611C96.4411 91.005 95.7322 90.9669 95.0531 90.8143C93.2642 90.412 92.6889 88.82 93.91 87.5021C94.3442 87.0304 94.99 86.6524 95.6209 86.4304C96.7083 86.0455 97.8737 86.0524 98.9908 86.3923C100.119 86.7356 100.583 87.4605 100.453 88.6744C99.7294 88.6744 98.9871 88.6848 98.2448 88.664C98.1335 88.664 98.0333 88.5079 97.9183 88.4351C97.6251 88.2513 97.3096 87.9079 97.0312 87.9322C96.6638 87.9599 96.3187 88.2755 95.9661 88.4698C96.263 88.6813 96.5302 88.9865 96.8642 89.0802C97.6287 89.2917 98.4379 89.3715 99.2135 89.5622C99.9892 89.7565 100.345 90.301 100.353 91.0293C100.368 92.1045 99.8964 92.9611 98.8943 93.5126C97.3355 94.3727 95.684 94.4212 94.0176 93.8559C92.9079 93.4779 92.444 92.5796 92.7001 91.4906L92.6964 91.4871Z" fill="#E2791C"/>
<path d="M22.5336 88.0917C22.0734 88.057 21.7431 88.0293 21.4202 88.005C21.2903 86.6177 21.4462 86.4235 22.8751 86.2535C23.0569 85.0917 23.4058 83.9575 24.7159 83.3888C25.7773 82.9275 26.8685 82.9136 28.0784 83.2431C28.0079 83.7252 27.9336 84.2107 27.8705 84.6269C27.1765 84.7448 26.4899 84.7344 25.9629 84.998C25.6586 85.1471 25.6103 85.7402 25.3914 86.2709C26.1522 86.3055 26.7571 86.3333 27.5476 86.368C27.3769 86.9576 27.3918 87.7206 27.0244 87.9495C26.5939 88.2165 25.8293 88.0119 25.1576 88.0119C24.7604 90.072 24.3782 92.0385 23.9959 94.0223H21.4388C21.8062 92.035 22.1625 90.0963 22.5336 88.0917Z" fill="#E2791C"/>
<path d="M30.5204 94.0326H27.9485C28.3159 92.0592 28.6759 90.1205 29.0545 88.1054C28.6499 88.0707 28.3048 88.043 27.8557 88.0048C27.9374 87.4638 28.0153 86.954 28.1081 86.3366C29.3848 86.6661 29.459 85.8337 29.7114 85.0152C30.1642 83.5516 31.9716 82.7505 33.8496 83.0695C34.076 83.1077 34.2986 83.1701 34.6104 83.243C34.5436 83.6626 34.525 84.0961 34.3877 84.4915C34.3431 84.6233 33.9906 84.7378 33.779 84.7343C32.3947 84.7135 32.198 84.8696 32.0495 86.2742C32.6804 86.3054 33.3114 86.3366 34.0091 86.3713C33.9349 86.843 33.9312 87.2904 33.7716 87.6788C33.6974 87.8592 33.3188 88.0222 33.0739 88.0326C31.6784 88.095 31.6635 88.0777 31.4112 89.3436C31.1031 90.8869 30.8248 92.4338 30.5204 94.0292V94.0326Z" fill="#E2791C"/>
<path d="M129.932 84.1517C129.806 84.9286 129.699 85.5633 129.583 86.2743C130.103 86.3089 130.578 86.3436 131.109 86.3783C131.057 86.6766 130.983 86.9298 130.975 87.1829C130.96 87.828 130.697 88.1818 129.943 88.05C129.383 87.9529 129.164 88.1991 129.09 88.702C128.967 89.5379 128.771 90.3633 128.633 91.1992C128.474 92.1425 128.581 92.2535 129.587 92.3055C129.713 92.3125 129.836 92.3367 129.992 92.3541C129.88 92.9263 129.776 93.4639 129.661 94.0639C128.938 94.0639 128.24 94.0917 127.546 94.057C126.31 93.998 125.794 93.4882 125.924 92.3333C126.058 91.1367 126.306 89.9471 126.503 88.7575C126.536 88.5494 126.562 88.3413 126.6 88.102C126.243 88.0604 125.943 88.0257 125.575 87.9841C125.668 87.4326 125.757 86.9194 125.861 86.3124C127.015 86.6246 127.138 85.8962 127.19 85.1644C127.223 84.7101 127.446 84.5332 127.895 84.4743C128.529 84.391 129.157 84.2696 129.932 84.1448V84.1517Z" fill="#E2791C"/>
<path d="M122.475 86.3296C122.501 86.6071 122.52 86.8152 122.538 87.058C122.991 86.8325 123.395 86.562 123.848 86.4267C124.297 86.2915 124.791 86.2984 125.403 86.2256C125.273 86.9921 125.169 87.599 125.062 88.2302C124.769 88.2441 124.542 88.2476 124.312 88.2649C123.217 88.3481 122.453 88.9065 122.219 89.9123C121.907 91.258 121.666 92.6175 121.388 94.0118H118.834C119.094 92.5828 119.35 91.1678 119.614 89.7562C119.795 88.7817 119.97 87.8036 120.204 86.8395C120.252 86.6418 120.541 86.3782 120.749 86.3539C121.306 86.288 121.878 86.3296 122.479 86.3296H122.475Z" fill="#E2791C"/>
<path d="M146.206 94.0986C143.156 94.2512 143.145 94.2477 142.376 93.5125C140.788 94.1575 139.14 94.4697 137.377 94.161C135.351 93.8038 134.486 92.2119 135.599 90.5645C136.126 89.7876 136.95 89.1876 137.522 88.6257C137.336 87.7066 136.943 86.7841 137.025 85.8997C137.162 84.3737 138.795 83.1771 140.617 83.0696C141.281 83.0315 141.987 83.0592 142.625 83.2222C144.792 83.7702 145.357 85.813 143.727 87.2523C143.022 87.8766 142.168 88.3517 141.315 88.9413C141.716 89.3575 142.12 89.7806 142.647 90.3286C142.903 89.6939 143.104 89.1945 143.323 88.6465H145.876C145.371 89.8188 144.9 90.9148 144.38 92.1252C144.893 92.6801 145.52 93.3564 146.206 94.0986ZM140.929 92.0593C140.94 91.9726 140.947 91.8893 140.959 91.8026C140.662 91.494 140.357 91.1887 140.068 90.8731C139.778 90.5575 139.5 90.228 139.218 89.9055C139.081 89.8639 138.943 89.8223 138.806 89.7807C138.542 90.1518 138.268 90.5159 138.012 90.8939C137.548 91.5737 137.811 92.2015 138.669 92.2466C139.415 92.2882 140.172 92.1321 140.925 92.0593H140.929ZM140.187 87.4777C140.762 87.0234 141.389 86.6558 141.827 86.1494C142.373 85.5182 141.953 84.835 141.085 84.7691C140.454 84.724 139.979 84.9459 139.693 85.4662C139.3 86.1806 139.593 86.7737 140.187 87.4743V87.4777Z" fill="#E2791C"/>
<path d="M182.19 94.0953C182.413 92.8884 182.621 91.7473 182.828 90.6028C182.895 90.2386 182.988 89.8745 183.025 89.5103C183.081 88.9484 183.3 88.3068 182.487 88.0224C181.863 87.8074 180.995 88.2132 180.78 88.9831C180.401 90.3323 180.175 91.7196 179.885 93.093C179.815 93.4259 179.748 93.7554 179.674 94.1022H177.247C177.477 92.8433 177.71 91.6329 177.922 90.419C178.011 89.8987 178.115 89.3716 178.119 88.8479C178.122 88.1299 177.595 87.8213 176.857 88.0432C176.081 88.2756 175.777 88.8687 175.636 89.538C175.32 91.0398 175.046 92.5485 174.745 94.0918H172.303C172.685 92.0282 173.068 90.0062 173.439 87.9843C173.758 86.2432 173.75 86.2432 175.784 86.375C175.829 86.6074 175.873 86.8536 175.903 87.0132C176.693 86.7461 177.462 86.3958 178.275 86.2328C179.266 86.0317 179.908 86.6386 180.294 87.1727C181.344 86.8328 182.275 86.3438 183.251 86.2536C184.866 86.1045 185.768 86.9958 185.619 88.5218C185.482 89.9369 185.152 91.338 184.903 92.7427C184.825 93.1831 184.721 93.6236 184.625 94.0988H182.194L182.19 94.0953Z" fill="#E2791C"/>
<path d="M152.297 90.516H154.69C154.739 90.5819 154.794 90.62 154.802 90.6686C155.039 92.1634 155.474 92.5206 157.103 92.3992C157.611 92.3611 158.201 92.212 158.573 91.9172C158.933 91.6258 159.274 91.057 159.222 90.6582C159.181 90.3565 158.55 90.0096 158.116 89.8848C157.285 89.6524 156.394 89.6108 155.552 89.4096C153.083 88.82 152.33 86.7946 153.855 84.8593C154.794 83.6662 156.164 83.1599 157.671 83.0836C158.606 83.035 159.604 83.1252 160.491 83.3957C161.905 83.8258 162.536 85.0743 162.173 86.3784H159.764C159.226 84.7657 157.544 84.287 156.338 85.4212C156.038 85.7021 155.793 86.2327 155.863 86.5969C155.919 86.8882 156.442 87.2212 156.824 87.3183C157.745 87.5541 158.71 87.627 159.641 87.8281C161.716 88.2755 162.436 89.4859 161.709 91.3657C160.918 93.4085 159.111 94.1299 156.991 94.2547C156.082 94.3068 155.121 94.1784 154.245 93.9357C152.597 93.4779 151.907 92.1807 152.308 90.516H152.297Z" fill="#E2791C"/>
<path d="M226.648 94.6743C227.053 95.5968 227.595 95.8465 228.693 95.6176C229.629 95.4199 230.011 94.8442 229.959 93.6928C229.406 93.8731 228.864 94.1055 228.3 94.2269C226.73 94.5702 225.186 93.7066 224.871 92.243C224.455 90.2974 225.015 88.5736 226.533 87.1655C227.536 86.2361 229.666 85.6673 231.276 86.8395C231.881 86.2742 232.312 86.2014 233.9 86.4338C233.648 87.8245 233.396 89.2187 233.14 90.6095C232.947 91.65 232.691 92.6835 232.55 93.7309C232.216 96.2142 230.063 97.3864 227.483 97.2546C226.849 97.2199 226.192 97.0777 225.598 96.8592C224.574 96.4812 224.199 95.739 224.385 94.6777H226.648V94.6743ZM231.084 89.4927C230.846 88.7679 230.764 88.1262 229.955 87.8939C229.161 87.665 228.452 87.9702 228.152 88.584C227.751 89.3991 227.535 90.3112 227.387 91.206C227.294 91.7644 227.573 92.3436 228.237 92.5274C228.946 92.7216 229.662 92.5725 230.018 91.9448C230.456 91.1713 230.735 90.3147 231.08 89.4962L231.084 89.4927Z" fill="#E2791C"/>
<path d="M254.013 86.8605C254.711 85.8964 255.665 86.5241 256.6 86.2952C256.237 88.2652 255.895 90.0999 255.557 91.938C255.446 92.538 255.32 93.1346 255.227 93.7346C254.822 96.36 252.636 97.345 250.239 97.2583C249.549 97.234 248.836 97.0641 248.194 96.8213C247.229 96.4571 246.884 95.7288 247.032 94.6745H249.307C249.749 95.5831 250.28 95.8363 251.33 95.6282C252.269 95.4409 252.64 94.9103 252.662 93.6721C252.158 93.8455 251.679 94.0502 251.178 94.1716C249.241 94.6467 247.6 93.5958 247.448 91.7438C247.3 89.9438 247.812 88.3311 249.3 87.0929C250.621 85.9935 252.34 85.9172 254.013 86.8605ZM249.827 90.797C249.99 91.7646 250.347 92.3993 250.959 92.5519C251.727 92.7461 252.525 92.4687 252.907 91.6571C253.249 90.9288 253.438 90.1137 253.542 89.323C253.624 88.7056 253.375 88.1126 252.622 87.8941C251.905 87.686 251.263 87.9392 250.926 88.4663C250.462 89.1877 250.187 90.0166 249.831 90.797H249.827Z" fill="#E2791C"/>
<path d="M319.264 86.3612H321.308C321.353 86.5831 321.398 86.8016 321.45 87.0444C321.535 87.0305 321.613 87.0305 321.68 87.0028C322.285 86.7461 322.867 86.3161 323.495 86.2502C325.825 86.0005 327.169 87.3045 326.983 89.5138C326.842 91.1924 326.248 92.6595 324.693 93.6444C323.29 94.5323 321.88 94.5046 320.418 93.5126C320.217 94.5011 319.969 95.4306 319.861 96.3739C319.779 97.1092 319.471 97.3901 318.688 97.2896C318.247 97.2341 317.794 97.2791 317.215 97.2791C317.905 93.5994 318.581 90.0063 319.267 86.3577L319.264 86.3612ZM324.545 89.5693C324.396 88.7959 324.292 88.13 323.405 87.8733C322.715 87.6756 321.906 87.9669 321.524 88.7438C321.179 89.4444 320.971 90.2317 320.859 91.0017C320.767 91.6398 320.956 92.3265 321.75 92.5346C322.526 92.7392 323.272 92.5103 323.643 91.8306C324.033 91.1196 324.252 90.3253 324.545 89.5693Z" fill="#E2791C"/>
<path d="M209.05 94.0953H206.579C206.824 92.7843 207.065 91.5114 207.302 90.2386C207.351 89.9785 207.41 89.7183 207.425 89.4548C207.455 88.8652 207.67 88.1889 206.827 87.9045C206.159 87.679 205.309 88.0467 205.031 88.8756C204.641 90.0548 204.445 91.286 204.174 92.4999C204.059 93.0132 203.97 93.5334 203.862 94.0883H201.412C202.092 90.4675 202.767 86.8813 203.446 83.2605H205.892C205.669 84.5125 205.454 85.7195 205.257 86.8154C206.111 86.6108 206.927 86.2813 207.755 86.2397C209.318 86.1669 210.223 87.086 210.026 88.5357C209.774 90.3877 209.381 92.2259 209.047 94.0953H209.05Z" fill="#E2791C"/>
<path d="M260.782 86.805C261.662 86.5934 262.453 86.2743 263.258 86.2397C264.861 86.1668 265.763 87.0998 265.552 88.5946C265.292 90.4223 264.913 92.2362 264.576 94.0917H262.104C262.345 92.7981 262.586 91.5322 262.816 90.2628C262.891 89.8466 263.02 89.4131 262.961 89.0108C262.905 88.6397 262.705 88.064 262.438 87.9911C262.03 87.8801 261.339 87.9807 261.079 88.2512C260.653 88.6917 260.356 89.3194 260.211 89.909C259.87 91.2929 259.654 92.701 259.387 94.1056H256.934C257.62 90.457 258.296 86.857 258.975 83.2466H261.425C261.198 84.5021 260.979 85.7125 260.782 86.805Z" fill="#E2791C"/>
<path d="M286.007 86.3334C284.574 88.6744 283.253 90.8525 281.913 93.0201C281.405 93.8421 280.892 94.6675 280.314 95.4479C279.189 96.96 277.578 97.3728 275.656 97.1022C275.782 96.4606 275.901 95.8398 276.038 95.1357C276.405 95.1357 276.765 95.1496 277.122 95.1357C278.076 95.0907 278.521 94.6953 278.517 93.797C278.517 93.301 278.398 92.8016 278.287 92.3161C277.838 90.36 277.37 88.4074 276.884 86.3438C277.716 86.3438 278.45 86.2952 279.167 86.375C279.371 86.3958 279.646 86.76 279.69 86.9993C279.909 88.1958 280.061 89.4028 280.243 90.6062C280.276 90.8386 280.336 91.064 280.425 91.5114C280.792 90.8664 281.067 90.4016 281.327 89.9265C281.883 88.9172 282.448 87.9114 282.971 86.8848C283.186 86.4652 283.468 86.3022 283.958 86.3299C284.574 86.3646 285.194 86.3368 286.007 86.3368V86.3334Z" fill="#E2791C"/>
<path d="M168.113 86.2086C170.678 86.2086 172.01 87.6687 171.613 90.041C171.101 93.0861 168.395 94.8549 165.319 94.1266C164.12 93.8422 163.303 93.1138 163.099 91.9728C162.539 88.8063 164.944 86.0387 168.117 86.2051L168.113 86.2086ZM165.404 90.7971C165.615 91.567 165.705 92.2364 166.54 92.4757C167.371 92.7115 168.061 92.3335 168.373 91.6919C168.737 90.9497 168.971 90.1034 169.019 89.2919C169.045 88.8722 168.648 88.2514 168.247 88.0364C167.664 87.7208 166.9 87.908 166.532 88.4838C166.072 89.2086 165.771 90.0237 165.4 90.7971H165.404Z" fill="#E2791C"/>
<path d="M291.071 86.2084C293.665 86.2084 295.016 87.7206 294.559 90.1206C293.995 93.1102 291.405 94.7923 288.358 94.1438C287.07 93.8698 286.227 93.1068 286.038 91.9033C285.533 88.6674 288.009 86.042 291.071 86.2119V86.2084ZM288.361 90.8732C288.595 91.605 288.692 92.2397 289.49 92.4755C290.288 92.7079 290.974 92.3715 291.282 91.7646C291.668 91.0015 291.887 90.1414 292.017 89.3021C292.102 88.7541 291.839 88.168 291.163 87.9876C290.484 87.8073 289.794 87.953 289.445 88.5322C289 89.2674 288.718 90.0894 288.361 90.8732Z" fill="#E2791C"/>
<path d="M194.267 91.605C193.648 93.7137 190.938 94.4975 189.346 94.2513C187.323 93.9392 186.362 92.7808 186.514 90.8663C186.737 88.064 188.7 86.2778 191.454 86.1946C193.911 86.1183 194.976 87.8212 194.809 89.5588C194.776 89.8952 194.694 90.2247 194.62 90.6201C193.102 90.6201 191.636 90.6062 190.17 90.6305C189.814 90.6374 189.157 90.7657 189.153 90.8628C189.131 91.3415 189.149 91.9033 189.409 92.2813C189.587 92.5415 190.177 92.6212 190.593 92.6559C190.831 92.6767 191.224 92.5137 191.324 92.3264C191.803 91.449 192.638 91.5981 193.432 91.6016C193.685 91.6016 193.941 91.6016 194.267 91.6016V91.605ZM192.371 89.2293C192.371 88.1958 192.055 87.8143 191.261 87.7865C190.3 87.7553 189.643 88.2964 189.539 89.2293H192.371Z" fill="#E2791C"/>
<path d="M218.546 86.3366C218.583 86.6384 218.609 86.8673 218.646 87.1898C218.869 87.0546 219.058 86.9644 219.218 86.843C219.997 86.2534 220.899 86.1216 221.857 86.2361C223.122 86.3887 223.839 87.3043 223.634 88.6777C223.367 90.4812 222.992 92.2708 222.655 94.0951H220.19C220.458 92.6454 220.717 91.2442 220.977 89.843C220.992 89.7632 221.003 89.687 221.014 89.6072C221.185 88.48 221.01 88.0187 220.357 87.8765C219.626 87.717 218.761 88.1852 218.524 89.08C218.134 90.5367 217.893 92.0315 217.589 93.5089C217.552 93.6858 217.511 93.8662 217.462 94.0847H215.028C215.492 91.6188 215.941 89.1771 216.423 86.7459C216.457 86.5864 216.735 86.3748 216.921 86.3575C217.448 86.3054 217.982 86.3401 218.542 86.3401L218.546 86.3366Z" fill="#E2791C"/>
<path d="M302.869 94.1089H300.809C300.78 93.8384 300.754 93.5852 300.713 93.228C300.472 93.384 300.294 93.5436 300.078 93.6268C299.488 93.8557 298.898 94.1817 298.282 94.2407C296.434 94.4176 295.439 93.3147 295.74 91.4869C295.951 90.2106 296.215 88.9412 296.46 87.6684C296.538 87.2557 296.627 86.8429 296.72 86.3851H299.139C298.92 87.6094 298.709 88.7886 298.501 89.9678C298.412 90.4638 298.29 90.9563 298.256 91.4522C298.193 92.4545 299.058 92.9852 299.911 92.3886C300.42 92.0314 300.824 91.3794 300.988 90.7898C301.344 89.517 301.537 88.2025 301.752 86.9019C301.823 86.4753 301.993 86.3088 302.454 86.3262C303.04 86.3504 303.63 86.3331 304.328 86.3331C303.827 88.9863 303.348 91.5389 302.862 94.1054L302.869 94.1089Z" fill="#E2791C"/>
<path d="M316.033 94.1057H313.951C313.921 93.849 313.892 93.5993 313.847 93.256C313.584 93.419 313.368 93.5542 313.149 93.6895C312.337 94.1993 311.468 94.3935 310.496 94.1681C309.475 93.9323 308.911 93.3912 308.896 92.4028C308.889 91.6953 309 90.9808 309.115 90.2802C309.297 89.1843 309.572 88.1022 309.731 87.0027C309.809 86.4548 310.058 86.2883 310.611 86.323C311.141 86.3577 311.676 86.3299 312.322 86.3299C312.054 87.7866 311.802 89.1531 311.557 90.5195C311.505 90.8039 311.394 91.1091 311.453 91.3797C311.535 91.7612 311.657 92.3508 311.917 92.4375C312.322 92.5693 313.016 92.5034 313.298 92.2467C313.728 91.8548 314.036 91.2513 314.177 90.6895C314.526 89.2779 314.749 87.8386 315.031 86.375H317.477C316.994 88.9623 316.519 91.4976 316.033 94.1022V94.1057Z" fill="#E2791C"/>
<path d="M201.39 86.3784C201.282 86.9541 201.197 87.4188 201.115 87.8628C201.026 87.9044 200.974 87.9425 200.926 87.946C199.956 88.0038 199.391 88.4905 199.23 89.4061C199.119 90.0304 198.989 90.6547 198.877 91.279C198.699 92.309 198.759 92.3715 199.846 92.42C199.954 92.4235 200.065 92.4443 200.251 92.4686C200.139 93.0339 200.035 93.5645 199.917 94.1507C199.274 94.1507 198.681 94.1645 198.091 94.1507C196.587 94.1091 196.053 93.5333 196.265 92.1252C196.446 90.9217 196.691 89.7287 196.907 88.5287C196.933 88.3795 196.94 88.2269 196.959 88.0223C196.617 87.9876 196.32 87.9599 195.938 87.9217C196.023 87.4015 196.105 86.9159 196.201 86.3333C197.352 86.6177 197.486 85.9102 197.549 85.1506C197.586 84.7136 197.805 84.509 198.298 84.4674C198.881 84.4153 199.456 84.2697 200.162 84.1414C200.05 84.8732 199.954 85.5356 199.839 86.2882C200.369 86.3229 200.833 86.3506 201.386 86.3853L201.39 86.3784Z" fill="#E2791C"/>
<path d="M267.871 88.0084C267.46 87.9772 267.185 87.9564 266.832 87.9286C266.892 87.5367 266.873 87.1552 267.022 86.8396C267.122 86.6246 267.456 86.5066 267.678 86.3332C267.901 86.1563 268.246 86.0003 268.306 85.7818C268.643 84.5402 268.621 84.5367 269.998 84.3251C270.321 84.2766 270.644 84.228 271.063 84.1621C270.948 84.9043 270.844 85.5667 270.729 86.2812C271.267 86.3194 271.735 86.354 272.195 86.3887C272.185 87.3806 271.575 87.9286 270.365 88.0327C270.147 89.2812 269.898 90.5679 269.723 91.865C269.701 92.0246 270.039 92.2916 270.269 92.3992C270.473 92.4963 270.759 92.4373 271.111 92.4512C271.022 93.0061 270.941 93.5159 270.844 94.0951C269.994 94.0951 269.152 94.161 268.328 94.0778C267.523 93.9945 267.051 93.4778 267.151 92.6974C267.315 91.4142 267.545 90.1413 267.749 88.8616C267.79 88.6049 267.827 88.3483 267.879 88.0153L267.871 88.0084Z" fill="#E2791C"/>
<path d="M241.73 92.2743C241.689 92.6003 241.674 92.7841 241.641 92.9645C241.422 94.1367 241.117 94.3622 239.967 94.22C238.79 94.0778 238.197 93.4569 238.341 92.4095C238.505 91.2581 238.75 90.117 238.965 88.9725C239.321 87.0789 239.677 85.1818 240.041 83.2534H242.498C242.023 85.7783 241.555 88.2719 241.088 90.7621C241.047 90.9702 241.032 91.1853 240.976 91.3864C240.82 91.9483 240.902 92.3506 241.726 92.2708L241.73 92.2743Z" fill="#E2791C"/>
<path d="M214.702 86.3368C214.197 89.0143 213.722 91.5287 213.24 94.0848H210.783C211.247 91.6189 211.696 89.1773 212.178 86.746C212.212 86.5865 212.494 86.368 212.672 86.3541C213.31 86.3056 213.96 86.3368 214.702 86.3368Z" fill="#E2791C"/>
<path d="M242.864 94.1333C243.335 91.6119 243.78 89.1945 244.263 86.7806C244.296 86.6072 244.608 86.3748 244.812 86.354C245.424 86.2985 246.044 86.3332 246.775 86.3332C246.579 87.4188 246.404 88.4211 246.219 89.4199C245.962 90.8003 245.677 92.1737 245.439 93.5541C245.369 93.9633 245.239 94.1679 244.753 94.1402C244.162 94.1055 243.572 94.1333 242.86 94.1333H242.864Z" fill="#E2791C"/>
<path d="M212.454 85.2478C212.595 84.4952 212.706 83.9021 212.828 83.2605H215.252C215.159 83.8154 215.1 84.353 214.966 84.8802C214.929 85.0258 214.692 85.2201 214.536 85.2305C213.868 85.2686 213.196 85.2478 212.454 85.2478Z" fill="#E2791C"/>
<path d="M244.55 85.2479C244.684 84.53 244.803 83.8918 244.925 83.2363H247.345C247.252 83.8051 247.2 84.3462 247.059 84.8664C247.018 85.0225 246.74 85.2167 246.558 85.2306C245.92 85.2756 245.274 85.2479 244.55 85.2479Z" fill="#E2791C"/>
</svg>
