<svg width="26" height="26" viewBox="0 0 26 26" fill="none" xmlns="http://www.w3.org/2000/svg">
<path d="M25.7875 8.6777V4.22401C25.7875 1.89205 23.8955 0.00390625 21.5674 0.00390625H17.1137C14.7818 0.00390625 12.8937 1.89594 12.8937 4.22401C12.8937 1.89205 11.0016 0.00390625 8.67354 0.00390625H4.21985C1.88789 0.00390625 -0.000244141 1.89594 -0.000244141 4.22401V8.6777C-0.000244141 11.0097 1.89178 12.8978 4.21985 12.8978C1.88789 12.8978 -0.000244141 14.7898 -0.000244141 17.1179V21.5716C-0.000244141 23.9036 1.89178 25.7917 4.21985 25.7917H8.67354C11.0055 25.7917 12.8937 23.8997 12.8937 21.5716C12.8937 23.9036 14.7857 25.7917 17.1137 25.7917H21.5674C23.8994 25.7917 25.7875 23.8997 25.7875 21.5716V17.1179C25.7875 14.786 23.8955 12.8978 21.5674 12.8978C23.8994 12.8978 25.7875 11.0058 25.7875 8.6777ZM12.8898 17.1218C12.8898 14.7898 10.9977 12.9017 8.66964 12.9017C11.0016 12.9017 12.8898 11.0097 12.8898 8.68159C12.8898 11.0135 14.7818 12.9017 17.1098 12.9017C14.7779 12.9017 12.8898 14.7937 12.8898 17.1218Z" fill="#E2791C"/>
</svg>
