<svg width="26" height="26" viewBox="0 0 26 26" fill="none" xmlns="http://www.w3.org/2000/svg">
<path d="M25.7878 8.67721V4.22352C25.7878 1.89156 23.8957 0.00341797 21.5677 0.00341797H17.114C14.782 0.00341797 12.8939 1.89546 12.8939 4.22352C12.8939 1.89156 11.0018 0.00341797 8.67378 0.00341797H4.22009C1.88813 0.00341797 0 1.89546 0 4.22352V8.67721C0 11.0092 1.89203 12.8973 4.22009 12.8973C1.88813 12.8973 0 14.7894 0 17.1174V21.5711C0 23.9031 1.89203 25.7912 4.22009 25.7912H8.67378C11.0057 25.7912 12.8939 23.8992 12.8939 21.5711C12.8939 23.9031 14.7859 25.7912 17.114 25.7912H21.5677C23.8996 25.7912 25.7878 23.8992 25.7878 21.5711V17.1174C25.7878 14.7855 23.8957 12.8973 21.5677 12.8973C23.8996 12.8973 25.7878 11.0053 25.7878 8.67721ZM12.89 17.1213C12.89 14.7894 10.9979 12.9012 8.66988 12.9012C11.0018 12.9012 12.89 11.0092 12.89 8.6811C12.89 11.0131 14.782 12.9012 17.1101 12.9012C14.7781 12.9012 12.89 14.7932 12.89 17.1213Z" fill="#E2791C"/>
</svg>
