<svg width="36" height="36" viewBox="0 0 36 36" fill="none" xmlns="http://www.w3.org/2000/svg">
<path fill-rule="evenodd" clip-rule="evenodd" d="M30.79 14.3853V18.2413C30.79 19.6505 30.248 20.9345 29.3605 21.895C30.2476 22.8547 30.79 24.138 30.79 25.5487V29.4047C30.79 32.3756 28.381 34.79 25.4047 34.79H21.5487C20.1395 34.79 18.8555 34.248 17.895 33.3605C16.9353 34.2476 15.652 34.79 14.2413 34.79H10.3853C7.41439 34.79 5 32.381 5 29.4047V25.5487C5 24.1395 5.542 22.8555 6.42946 21.895C5.54243 20.9353 5 19.652 5 18.2413V14.3853C5 11.4144 7.40894 9.00001 10.3853 9.00001H14.2413C15.6505 9.00001 16.9345 9.54201 17.895 10.4295C18.8547 9.54245 20.138 9.00001 21.5487 9.00001H25.4047C28.3756 9.00001 30.79 11.409 30.79 14.3853ZM18.9668 11.8006C19.6276 11.1403 20.5402 10.7316 21.5487 10.7316H25.4047C27.4203 10.7316 29.0584 12.3663 29.0584 14.3853V18.2413C29.0584 19.2488 28.65 20.162 27.9893 20.8234C27.3282 21.4852 26.4145 21.895 25.4047 21.895C26.4135 21.895 27.3278 22.3045 27.9894 22.9668C28.6497 23.6277 29.0584 24.5403 29.0584 25.5487V29.4047C29.0584 31.4203 27.4237 33.0584 25.4047 33.0584H21.5487C20.5412 33.0584 19.628 32.65 18.9666 31.9893C18.3048 31.3282 17.895 30.4145 17.895 29.4047C17.895 30.4135 17.4855 31.3278 16.8232 31.9894C16.1623 32.6497 15.2497 33.0584 14.2413 33.0584H10.3853C8.36968 33.0584 6.73158 31.4237 6.73158 29.4047V25.5487C6.73158 24.5412 7.14002 23.6281 7.80072 22.9666C8.46182 22.3048 9.3755 21.895 10.3853 21.895C9.37647 21.895 8.46222 21.4855 7.80058 20.8233C7.14028 20.1624 6.73158 19.2498 6.73158 18.2413V14.3853C6.73158 12.3697 8.36631 10.7316 10.3853 10.7316H14.2413C15.2488 10.7316 16.162 11.14 16.8234 11.8007C17.4852 12.4618 17.895 13.3755 17.895 14.3853C17.895 13.3765 18.3045 12.4622 18.9668 11.8006ZM18.9608 22.97C18.3001 23.6314 17.8916 24.5446 17.8916 25.5521C17.8916 24.5436 17.4829 23.631 16.8226 22.9701C16.8217 22.9693 16.8209 22.9684 16.82 22.9675C16.1586 22.3068 15.2454 21.8984 14.2379 21.8984C15.2464 21.8984 16.159 21.4897 16.8199 20.8294C16.8207 20.8285 16.8216 20.8276 16.8225 20.8268C17.4832 20.1653 17.8916 19.2522 17.8916 18.2446C17.8916 19.2531 18.3003 20.1657 18.9606 20.8266C18.9615 20.8275 18.9624 20.8284 18.9632 20.8292C19.6247 21.4899 20.5378 21.8984 21.5453 21.8984C20.5369 21.8984 19.6243 22.3071 18.9634 22.9674C18.9625 22.9683 18.9616 22.9691 18.9608 22.97ZM13.6956 4.43589C12.6454 5.36593 11.9733 6.72854 11.9733 8.5V12.5H10.0267V8.5C10.0267 6.19295 10.9218 4.29226 12.4051 2.97862C13.8756 1.67643 15.8661 1.00012 18 1.00012C20.1335 1.00012 22.1241 1.67537 23.5947 2.97723C25.0784 4.29059 25.9733 6.19143 25.9733 8.5V12.5H24.0267V8.5C24.0267 6.72666 23.3545 5.3642 22.3045 4.43473C21.2415 3.49376 19.7321 2.94666 18 2.94666C16.2682 2.94666 14.7588 3.49441 13.6956 4.43589Z" fill="#E2791C"/>
</svg>
