<svg width="24" height="24" viewBox="0 0 24 24" fill="none" xmlns="http://www.w3.org/2000/svg">
<rect width="24" height="24" rx="12" fill="#191919" fill-opacity="0.1"/>
<path d="M13.8267 9.99998L13.596 16M10.404 16L10.1733 9.99998M16.8187 7.85998C17.0467 7.89465 17.2733 7.93131 17.5 7.97065M16.8187 7.85998L16.1067 17.1153C16.0776 17.4921 15.9074 17.8441 15.63 18.1008C15.3527 18.3575 14.9886 18.5001 14.6107 18.5H9.38933C9.0114 18.5001 8.64735 18.3575 8.36999 18.1008C8.09262 17.8441 7.92239 17.4921 7.89333 17.1153L7.18133 7.85998M16.8187 7.85998C16.0492 7.74366 15.2758 7.65538 14.5 7.59531M7.18133 7.85998C6.95333 7.89398 6.72667 7.93065 6.5 7.96998M7.18133 7.85998C7.95076 7.74366 8.72416 7.65538 9.5 7.59531M14.5 7.59531V6.98465C14.5 6.19798 13.8933 5.54198 13.1067 5.51731C12.3691 5.49374 11.6309 5.49374 10.8933 5.51731C10.1067 5.54198 9.5 6.19865 9.5 6.98465V7.59531M14.5 7.59531C12.8358 7.4667 11.1642 7.4667 9.5 7.59531" stroke="#191919" stroke-linecap="round" stroke-linejoin="round"/>
</svg>
